<svg width="200" height="400" viewBox="0 0 200 400" xmlns="http://www.w3.org/2000/svg">
  <!-- Blade -->
  <defs>
    <linearGradient id="bladeGradient" x1="0%" y1="0%" x2="100%" y2="0%">
      <stop offset="0%" style="stop-color:#E5E7EB;stop-opacity:1" />
      <stop offset="50%" style="stop-color:#F9FAFB;stop-opacity:1" />
      <stop offset="100%" style="stop-color:#E5E7EB;stop-opacity:1" />
    </linearGradient>
    <linearGradient id="handleGradient" x1="0%" y1="0%" x2="100%" y2="0%">
      <stop offset="0%" style="stop-color:#8B4513;stop-opacity:1" />
      <stop offset="50%" style="stop-color:#A0522D;stop-opacity:1" />
      <stop offset="100%" style="stop-color:#8B4513;stop-opacity:1" />
    </linearGradient>
    <linearGradient id="tipGradient" x1="0%" y1="0%" x2="100%" y2="0%">
      <stop offset="0%" style="stop-color:#C0C0C0;stop-opacity:1" />
      <stop offset="100%" style="stop-color:#A0A0A0;stop-opacity:1" />
    </linearGradient>
  </defs>
  
  <!-- Blade -->
  <path d="M 100 50 L 100 280 L 95 290 L 105 290 Z" fill="url(#bladeGradient)" stroke="#D1D5DB" stroke-width="1"/>
  
  <!-- Blade tip -->
  <path d="M 95 290 L 100 300 L 105 290 Z" fill="url(#tipGradient)" stroke="#A0A0A0" stroke-width="1"/>
  
  <!-- Blade edge -->
  <path d="M 100 50 L 100 280" stroke="#C0C0C0" stroke-width="2" stroke-linecap="round"/>
  
  <!-- Handle -->
  <rect x="85" y="280" width="30" height="80" rx="5" fill="url(#handleGradient)" stroke="#654321" stroke-width="1"/>
  
  <!-- Handle grip lines -->
  <line x1="90" y1="300" x2="110" y2="300" stroke="#654321" stroke-width="1"/>
  <line x1="90" y1="310" x2="110" y2="310" stroke="#654321" stroke-width="1"/>
  <line x1="90" y1="320" x2="110" y2="320" stroke="#654321" stroke-width="1"/>
  <line x1="90" y1="330" x2="110" y2="330" stroke="#654321" stroke-width="1"/>
  <line x1="90" y1="340" x2="110" y2="340" stroke="#654321" stroke-width="1"/>
  
  <!-- Handle end cap -->
  <rect x="80" y="360" width="40" height="10" rx="5" fill="#654321" stroke="#4A3728" stroke-width="1"/>
  
  <!-- Decorative elements on blade -->
  <circle cx="100" cy="120" r="3" fill="#E5E7EB" stroke="#D1D5DB" stroke-width="1"/>
  <circle cx="100" cy="180" r="3" fill="#E5E7EB" stroke="#D1D5DB" stroke-width="1"/>
  <circle cx="100" cy="240" r="3" fill="#E5E7EB" stroke="#D1D5DB" stroke-width="1"/>
  
  <!-- Blade shine effect -->
  <path d="M 98 60 L 98 270" stroke="#FFFFFF" stroke-width="1" opacity="0.6"/>
</svg>
